<?xml version="1.0" standalone="no"?>
<!DOCTYPE svg PUBLIC "-//W3C//DTD SVG 20010904//EN"
 "http://www.w3.org/TR/2001/REC-SVG-20010904/DTD/svg10.dtd">
<svg version="1.0" xmlns="http://www.w3.org/2000/svg"
 width="1024.000000pt" height="1024.000000pt" viewBox="0 0 1024.000000 1024.000000"
 preserveAspectRatio="xMidYMid meet">
<metadata>
Created by potrace 1.11, written by Peter Selinger 2001-2013
</metadata>
<g transform="translate(0.000000,1024.000000) scale(0.100000,-0.100000)"
fill="#000000" stroke="none">
<path d="M4947 10234 c-1 -1 -57 -4 -125 -8 -182 -9 -444 -38 -562 -61 -14 -3
-52 -10 -85 -16 -662 -117 -1432 -445 -2022 -861 -312 -219 -644 -518 -871
-782 -48 -55 -89 -103 -92 -106 -12 -11 -179 -228 -213 -277 -21 -29 -52 -74
-70 -100 -47 -68 -197 -308 -197 -315 0 -3 -18 -35 -39 -71 -22 -35 -84 -156
-139 -268 -180 -368 -315 -742 -398 -1109 -35 -154 -35 -158 -49 -242 -3 -18
-8 -40 -10 -48 -8 -30 -44 -328 -50 -415 -4 -49 -9 -108 -11 -130 -7 -56 -6
-524 0 -615 19 -248 62 -566 100 -735 109 -488 246 -866 473 -1310 160 -311
414 -697 613 -929 14 -16 54 -63 90 -105 85 -99 303 -317 410 -411 47 -41 87
-78 90 -81 5 -6 191 -154 249 -199 66 -50 229 -160 336 -228 336 -211 682
-379 1060 -514 96 -34 388 -124 434 -133 9 -2 68 -15 131 -30 221 -51 477 -89
750 -112 193 -16 692 -9 870 13 19 2 60 7 90 10 143 14 436 65 570 98 8 2 44
11 80 20 53 12 133 35 345 100 6 2 17 6 25 9 8 3 44 15 80 28 74 25 286 108
357 140 127 57 382 185 449 224 42 25 78 45 81 45 20 0 505 322 549 364 6 6
26 22 45 36 251 186 618 553 845 845 138 177 311 436 417 625 93 164 246 481
316 655 5 11 14 34 21 50 99 240 225 688 265 945 3 19 10 58 15 85 9 47 12 71
25 178 3 23 7 58 10 77 4 31 11 107 21 240 5 65 5 601 0 625 -2 11 -7 67 -11
125 -4 58 -9 112 -10 121 -2 9 -6 40 -10 70 -8 68 -33 236 -40 269 -3 14 -10
52 -16 85 -29 160 -103 438 -166 625 -35 103 -155 415 -173 448 -4 9 -49 100
-98 202 -87 179 -204 390 -263 477 -16 23 -29 46 -29 52 0 6 -4 11 -10 11 -5
0 -10 5 -10 11 0 12 -127 195 -214 309 -181 238 -418 495 -621 674 -50 44 -92
83 -95 86 -18 21 -251 201 -385 297 -282 201 -737 447 -1050 567 -38 15 -83
33 -100 41 -136 61 -519 172 -810 234 -74 16 -271 48 -340 56 -33 4 -73 8 -90
11 -115 15 -328 26 -543 28 -106 1 -193 1 -195 0z m788 -2090 c116 -25 219
-48 230 -50 11 -2 38 -8 60 -14 34 -8 645 -143 701 -154 10 -2 30 -7 44 -11
22 -5 29 -1 50 37 88 157 236 239 430 239 285 0 513 -228 511 -511 0 -36 -3
-76 -6 -90 -3 -14 -7 -36 -10 -49 -8 -44 -57 -132 -105 -191 -217 -260 -628
-238 -814 44 -43 66 -72 145 -81 224 -4 35 -12 62 -18 63 -17 1 -36 5 -134 28
-48 11 -99 22 -113 25 -14 2 -63 13 -110 25 -101 24 -461 105 -515 115 -11 2
-38 9 -60 14 -22 6 -56 14 -75 17 -19 3 -52 11 -73 17 -52 16 -46 28 -92 -187
-2 -11 -11 -49 -19 -85 -8 -36 -35 -157 -60 -270 -24 -113 -88 -396 -140 -630
-52 -233 -93 -426 -91 -428 4 -4 45 -7 185 -16 47 -3 119 -10 160 -16 41 -5
91 -12 110 -14 19 -2 69 -11 110 -19 41 -9 91 -19 110 -22 19 -3 87 -20 150
-36 63 -17 120 -32 125 -34 6 -1 17 -5 25 -8 8 -3 53 -19 100 -36 203 -70 423
-177 594 -288 87 -57 100 -62 115 -50 9 8 29 25 44 38 114 98 297 160 452 152
126 -5 175 -17 282 -70 162 -78 290 -221 348 -388 23 -65 29 -101 31 -190 5
-164 -28 -286 -111 -411 -41 -62 -164 -178 -217 -205 -41 -21 -43 -30 -28 -94
32 -138 31 -370 -4 -546 -27 -136 -27 -135 -63 -229 -137 -361 -394 -660 -805
-933 -125 -83 -333 -195 -458 -247 -41 -17 -84 -35 -95 -40 -174 -78 -555
-168 -855 -204 -237 -28 -660 -24 -910 8 -51 7 -237 38 -303 51 -308 60 -728
228 -975 390 -345 226 -538 407 -712 664 -124 184 -216 441 -237 661 -14 138
-6 348 16 442 10 42 11 40 -82 102 -281 188 -378 560 -225 866 34 66 62 104
128 171 71 71 100 92 180 131 52 26 113 50 135 54 22 4 47 9 55 11 46 11 221
4 280 -12 121 -31 178 -61 277 -142 28 -24 54 -43 58 -43 4 0 44 24 90 54 217
142 475 260 741 341 112 34 217 61 274 71 14 3 59 11 100 19 41 8 91 17 110
20 147 20 205 26 285 31 76 5 119 9 158 13 4 1 7 8 7 17 0 8 9 52 19 97 17 72
175 778 185 832 3 11 9 40 15 65 5 25 12 56 15 70 2 14 14 64 25 112 11 47 23
99 26 115 7 38 9 50 40 188 15 66 28 124 29 130 30 150 52 209 85 230 22 14
53 22 71 18 8 -1 110 -24 225 -49z"/>
<path d="M4029 5126 c-2 -2 -38 -6 -79 -9 -213 -15 -398 -168 -450 -372 -23
-88 -20 -214 5 -290 36 -107 122 -215 221 -277 140 -88 346 -98 494 -24 323
162 380 597 110 839 -30 27 -75 59 -100 72 -45 23 -150 58 -150 50 0 -3 -11 0
-24 5 -13 5 -26 7 -27 6z"/>
<path d="M6205 5123 c-53 -6 -148 -34 -200 -61 -65 -33 -175 -143 -209 -210
-90 -177 -75 -386 38 -540 97 -131 226 -200 386 -207 156 -6 274 40 386 150
109 108 153 218 149 372 -4 135 -49 243 -138 334 -89 92 -192 144 -307 155
-36 4 -67 7 -70 8 -3 1 -18 0 -35 -1z"/>
<path d="M3999 3586 c-44 -30 -64 -73 -55 -120 11 -58 152 -173 306 -251 72
-36 211 -89 261 -99 13 -2 67 -14 120 -25 53 -11 129 -23 170 -26 41 -4 92 -9
114 -11 57 -6 384 -6 420 0 17 2 62 7 100 11 105 9 305 52 398 84 158 55 294
134 399 232 81 77 88 132 26 191 -57 53 -122 49 -191 -10 -121 -104 -260 -171
-457 -217 -3 -1 -27 -5 -55 -10 -27 -4 -59 -9 -70 -12 -129 -25 -651 -24 -745
2 -8 2 -32 6 -52 9 -150 22 -338 93 -438 166 -19 13 -37 28 -40 31 -3 3 -27
22 -53 42 -59 45 -105 49 -158 13z"/>
</g>
</svg>
